<?xml version="1.0" encoding="utf-8"?>
<!-- Generator: Adobe Illustrator 15.1.0, SVG Export Plug-In . SVG Version: 6.00 Build 0)  -->
<!DOCTYPE svg PUBLIC "-//W3C//DTD SVG 1.1//EN" "http://www.w3.org/Graphics/SVG/1.1/DTD/svg11.dtd">
<svg version="1.1"
	 id="Layer_1" xmlns:dc="http://purl.org/dc/elements/1.1/" xmlns:cc="http://creativecommons.org/ns#" xmlns:rdf="http://www.w3.org/1999/02/22-rdf-syntax-ns#" xmlns:svg="http://www.w3.org/2000/svg"
	 xmlns="http://www.w3.org/2000/svg" xmlns:xlink="http://www.w3.org/1999/xlink" x="0px" y="0px" width="527px" height="195px"
	 viewBox="0 0 527 195" enable-background="new 0 0 527 195" xml:space="preserve">
<g id="g38">
	<path id="path4" fill="#BCBEC0" d="M391.597,127.591c-5.255,0-10.169,0-15.359,0c0-19.541,0-38.929,0-58.521
		c4.705,0,9.438,0,14.398,0c0,2.405,0,4.809,0,7.215c3.199-4.043,6.19-8.11,11.666-8.648c4.219-0.409,8.132,0.614,11.894,2.891
		c-1.562,4.527-3.171,9.003-4.656,13.25c-2.2-0.743-4.219-1.638-6.343-2.047c-4.171-0.69-7.342,1.228-9.132,5.09
		c-2.017,4.399-2.124,9.132-2.2,13.889c-0.152,8.389-0.229,16.773-0.268,25.125C391.636,126.391,391.636,126.877,391.597,127.591z"
		/>
	<path id="path6" fill="#BCBEC0" d="M366.03,118.715c-4.809,5.887-12.047,8.876-21.817,8.876c-9.745,0-16.959-2.989-21.768-8.876
		c-4.81-5.932-7.162-13.017-7.162-21.33c0-8.161,2.43-15.246,7.162-21.231c4.809-5.985,12.022-9.003,21.768-9.003
		c9.771,0,17.009,3.019,21.817,9.003c4.81,5.985,7.113,13.07,7.113,21.231C373.144,105.698,370.763,112.859,366.03,118.715z
		 M354.137,110.507c2.306-3.096,3.504-7.418,3.504-13.122c0-5.628-1.198-10.027-3.504-13.046c-2.353-3.095-5.629-4.604-9.999-4.604
		c-4.323,0-7.6,1.509-9.951,4.604c-2.352,3.095-3.505,7.418-3.505,13.046c0,5.628,1.153,10.026,3.505,13.122
		c2.352,3.095,5.628,4.628,9.951,4.628C348.508,115.135,351.86,113.602,354.137,110.507z"/>
	<g id="g10">
		<path id="path8" fill="#BCBEC0" d="M74.181,107.565c0.333,2.608,0.947,4.475,2.047,5.627c1.867,2.02,5.228,2.973,10.256,2.973
			c2.942,0,5.219-0.44,6.933-1.319c1.714-0.88,2.609-2.139,2.609-3.93c0-1.638-0.69-2.942-2.048-3.761
			c-1.379-0.895-6.545-2.353-15.473-4.476c-6.47-1.562-10.999-3.581-13.607-5.961c-2.61-2.352-3.914-5.78-3.914-10.179
			c0-5.219,2.047-9.694,6.188-13.479c4.12-3.785,9.891-5.627,17.37-5.627c7.085,0,12.865,1.433,17.341,4.247
			c4.452,2.838,7.009,7.699,7.697,14.655H94.593c-0.205-1.919-0.767-3.452-1.585-4.552c-1.659-1.983-4.399-3.019-8.313-3.019
			c-3.238,0-5.5,0.486-6.88,1.51c-1.381,1.047-2.067,2.2-2.067,3.504c0,1.735,0.762,2.966,2.198,3.716
			c1.454,0.836,6.596,2.141,15.472,4.136c5.908,1.356,10.308,3.504,13.274,6.242c2.888,2.838,4.323,6.418,4.323,10.666
			c0,5.627-2.071,10.179-6.263,13.761c-4.178,3.537-10.644,5.294-19.366,5.294c-8.952,0-15.475-1.866-19.744-5.677
			c-4.249-3.761-6.377-8.492-6.377-14.349H74.181z"/>
	</g>
	<g id="g14">
		<path id="path12" fill="#BCBEC0" d="M38.5,50.653h26.042v10.794H52.517v72.029h12.024v10.847H38.5V50.653z"/>
	</g>
	<g id="g18">
		<path id="path16" fill="#BCBEC0" d="M488.5,144.322h-26.063v-10.847h12.046V61.447h-12.046V50.653H488.5V144.322z"/>
	</g>
	<g id="g22">
		<path id="path20" fill="#BCBEC0" d="M162.556,118.715c-4.809,5.887-12.022,8.876-21.775,8.876c-9.764,0-16.978-2.989-21.787-8.876
			c-4.808-5.932-7.161-13.017-7.161-21.33c0-8.161,2.405-15.246,7.161-21.231c4.809-5.985,12.023-9.003,21.787-9.003
			c9.752,0,16.966,3.019,21.775,9.003c4.817,5.985,7.161,13.07,7.161,21.231C169.716,105.698,167.312,112.859,162.556,118.715z
			 M150.672,110.507c2.342-3.096,3.515-7.418,3.515-13.122c0-5.628-1.173-10.027-3.515-13.046c-2.339-3.095-5.638-4.604-9.961-4.604
			c-4.325,0-7.623,1.509-9.975,4.604c-2.329,3.095-3.504,7.418-3.504,13.046c0,5.628,1.176,10.026,3.504,13.122
			c2.352,3.095,5.65,4.628,9.975,4.628C145.034,115.135,148.41,113.602,150.672,110.507z"/>
	</g>
	<g id="g26">
		<path id="path24" fill="#BCBEC0" d="M451.438,70.169c3.914,1.79,7.238,4.552,9.771,8.39c2.352,3.376,3.836,7.289,4.552,11.689
			c0.408,2.609,0.543,6.318,0.485,11.203h-41.251c0.198,5.704,2.206,9.694,5.902,11.971c2.275,1.424,4.962,2.123,8.162,2.123
			c3.398,0,6.15-0.895,8.283-2.609c1.153-0.972,2.125-2.2,3.02-3.914h15.093c-0.41,3.353-2.2,6.703-5.476,10.219
			c-5.102,5.513-12.15,8.275-21.33,8.275c-7.522,0-14.122-2.353-19.902-6.956c-5.78-4.682-8.693-12.177-8.693-22.689
			c0-9.822,2.637-17.316,7.798-22.535c5.219-5.218,11.971-7.841,20.283-7.841C443.049,67.56,447.524,68.379,451.438,70.169z
			 M429.337,82.958c-2.096,2.124-3.463,5.09-3.915,8.723h25.502c-0.305-3.914-1.609-6.933-3.956-8.928
			c-2.31-2.071-5.273-3.019-8.789-3.019C434.326,79.735,431.383,80.835,429.337,82.958z"/>
	</g>
	<g id="g30">
		<path id="path28" fill="#BCBEC0" d="M186.7,127.591h-14.784V50.653H186.7V127.591z"/>
	</g>
	<g id="g34">
		<path id="path32" fill="#BCBEC0" d="M205.655,64.201h-14.987V50.653h14.987V64.201z M190.667,70.936h14.987v56.655h-14.987V70.936
			z"/>
	</g>
	<path id="path36" fill="#BCBEC0" d="M295.41,112.374c-1.409,1.866-3.914,2.838-7.418,2.838c-4.885,0-8.237-2.353-9.951-7.085
		c-0.971-2.533-1.457-5.857-1.457-9.981c0-4.317,0.486-7.821,1.457-10.436c1.867-4.956,5.219-7.437,10.256-7.437
		c3.504,0,6.114,1.176,7.751,3.452c1.152,1.714,1.866,3.556,2.124,5.704h15.202c-0.852-8.057-3.516-13.684-8.042-16.907
		c-4.552-3.172-10.332-4.809-17.446-4.809c-8.388,0-14.941,2.661-19.691,8.108c-1.971,2.252-3.58,4.937-4.732,8.032V50.653h-14.989
		v25.578c-1.638-2.686-3.837-4.757-6.447-6.267c-2.685-1.509-5.704-2.251-9.156-2.251c-7.418,0-13.403,2.737-17.855,8.313
		c-4.476,5.551-6.675,13.122-6.675,22.817c0,8.39,2.276,15.245,6.804,20.616c4.528,5.37,10.103,8.057,16.702,8.057
		c3.99,0,7.366-0.792,10.104-2.277c2.686-1.533,5.09-3.99,7.213-7.341v9.693h14.375v-15.294c1.048,2.609,2.38,5.038,4.066,7.162
		c4.324,5.446,10.998,8.132,20.131,8.132c9.132,0,15.988-3.247,20.616-9.693c2.866-3.99,4.552-8.286,4.886-12.79h-15.142
		C297.763,108.05,296.942,110.45,295.41,112.374z M245.659,110.326c-2.2,3.096-5.347,4.657-9.542,4.657
		c-4.194,0-7.29-1.562-9.361-4.657c-2.047-3.171-3.095-7.313-3.095-12.509c0-4.884,1.047-8.95,3.036-12.173
		c1.979-3.3,5.226-4.886,9.549-4.886c2.814,0,5.371,0.896,7.494,2.686c3.504,2.947,5.218,7.904,5.218,14.836
		C248.888,103.165,247.792,107.232,245.659,110.326z"/>
</g>
</svg>
