<svg id="Ebene_1" data-name="Ebene 1" xmlns="http://www.w3.org/2000/svg" viewBox="0 0 5717.2 871.92"><defs><style>.cls-1{fill:#004494}</style></defs><title>MxWortmarke_Print_170809</title><path class="cls-1" d="M1174.78 847.36l6.38 591.11c.36 44.57 29.39 71.18 77.65 71.2 23.69 0 43.11-7.14 56.17-20.65 12.23-12.65 18.58-30.83 17.9-51.22-.21-5.93-20.86-682.72-21.07-689.55-2.4-56.6-65.42-100.57-118-100.57-54.4 0-94.09 29.9-121.35 91.39l-163.08 420.42L746 738.79c-10.42-27.42-43.07-91.1-121.23-91.1-52.61 0-115.63 44-118 100.65-.21 6.75-20.86 683.55-21.07 689.47-.68 20.38 5.67 38.57 17.9 51.22 13.06 13.51 32.49 20.65 56.17 20.65 48.26 0 77.29-26.63 77.65-71.18l6.39-591.13L843 1323.91c13.73 33.77 37.89 53.11 66.29 53.13 29.18 0 50.87-17.42 66.31-53.21zm1521.1-192.25c-50.57 0-80.77 28.36-80.77 75.85v694.22c0 46.1 33 77.07 82 77.07h254.92c88 0 159.51-25.09 206.71-72.55 41.89-42.14 63.82-101.67 63.42-172.16-.6-105-90.75-197.87-209.68-207l-.88-1.53c85-17.89 137.54-117.39 137.54-193 0-116.37-90.7-200.83-215.67-200.83zm233.9 717.77h-163v-239.4h148.15c92.77 0 148.16 42.9 148.16 114.76 0 75.71-52.32 124.63-133.3 124.63zm-49.5-368.77h-113.5V784.5h113.5c70.12 0 117.23 42.13 117.23 104.84.01 70.79-44.91 114.76-117.23 114.76zm1550.28-349c-43.61 0-67.15 35.25-67.15 68.41s17.64 68.4 67.15 68.4h151.87v638.21c0 49.8 28.35 79.54 75.84 79.54s75.82-29.74 75.82-79.54V791.92H4886c49.54 0 67.19-35.33 67.19-68.4s-23.55-68.41-67.19-68.41zm784.21-7.42c-47.48 0-75.83 29.74-75.83 79.55v702.89c0 49.81 28.35 79.54 75.83 79.54s75.84-29.73 75.84-79.54V727.24c0-49.81-28.36-79.55-75.84-79.55zm910.94 0c-23.28 0-50.64 15.85-66.52 38.55l-506.28 700.63c-8.63 11.85-17.82 32-17.82 53.17 0 41.65 31 69.63 77.07 69.63 26.12 0 46.7-11 62.89-33.71l511.32-710.64c10.78-14 16.41-29.26 16.41-44.28 0-43.19-31.69-73.35-77.07-73.35z" transform="translate(-485.58 -645.98)"/><path class="cls-1" d="M5612.16 647.69c-45.38 0-77.07 30.16-77.07 73.35 0 15 5.63 30.28 16.28 44.1l511.42 710.77c16.22 22.72 36.8 33.76 62.93 33.76 46.09 0 77.07-28 77.07-69.63 0-21.15-9.18-41.31-17.78-53.13l-506.18-700.46c-16-22.86-43.4-38.76-66.67-38.76zM1961.29 646c-240.39 0-436 195.57-436 436s195.57 436 436 436 436-195.57 436-436-195.6-436-436-436zm0 722.45c-158 0-286.49-128.52-286.49-286.49s128.52-286.49 286.49-286.49 286.5 128.53 286.5 286.47-128.52 286.49-286.5 286.49zM3836.5 646c-240.39 0-436 195.57-436 436s195.57 436 436 436 436-195.57 436-436-195.61-436-436-436zm0 722.45c-158 0-286.49-128.52-286.49-286.49s128.52-286.49 286.49-286.49S4123 924 4123 1081.94s-128.53 286.49-286.5 286.49z" transform="translate(-485.58 -645.98)"/></svg>