<?xml version="1.0" encoding="UTF-8"?> <svg xmlns="http://www.w3.org/2000/svg" width="267" height="67" viewBox="0 0 267 67" fill="none"><path d="M173.009 23.2723H165.474V55.9029H173.009V23.2723Z" fill="white"></path><path d="M184.773 23.2717L200.148 55.9023H207.682L223.238 23.2717H214.974L204.036 47.4564L193.037 23.2717H184.773Z" fill="white"></path><path d="M80.3256 55.9022H87.7385V51.7099C89.3188 53.3502 93.2074 56.9964 100.682 56.9964C109.918 56.9964 117.878 50.4339 117.878 39.3748C117.878 29.4699 111.133 22.1782 100.378 22.1782C94.1191 22.1782 91.0803 24.3659 87.8597 26.6748V11.7264H80.3256V55.9022ZM87.8597 33.1154C90.1693 31.232 93.2687 28.6188 98.7376 28.6188C104.51 28.6188 110.222 32.2649 110.222 39.6179C110.222 46.7878 104.814 50.5551 98.9807 50.5551C93.8148 50.5551 90.7773 48.0631 87.8597 45.8161V33.1154Z" fill="white"></path><path d="M248.709 56.9965C257.642 56.9965 267 52.5604 267 39.5567C267 30.8065 261.713 22.1782 248.709 22.1782C235.705 22.1782 230.418 30.8065 230.418 39.5567C230.418 52.5604 239.776 56.9965 248.709 56.9965ZM248.564 50.7645C241.821 50.7645 237.933 46.5722 237.933 39.6473C237.933 31.9919 242.793 28.8326 248.564 28.8326C254.275 28.8326 259.196 31.9919 259.196 39.6473C259.196 46.5722 255.308 50.7645 248.564 50.7645Z" fill="white"></path><path d="M129.97 55.9023H137.504V38.585C137.566 36.2755 137.566 29.8948 147.167 29.8349C149.658 29.8349 151.056 30.2604 151.785 30.4422V22.3001C150.995 22.1782 150.205 22.1782 149.111 22.1782C142.609 22.1782 139.328 25.4588 137.687 28.1327H137.504V23.2718H129.97V55.9023Z" fill="white"></path><path d="M7.45376 33.4574C7.45376 47.7933 19.0756 59.4151 33.4121 59.4151C47.748 59.4151 59.3691 47.7933 59.3691 33.4574C59.3691 19.1215 47.748 7.4997 33.4121 7.4997C19.0756 7.4997 7.45376 19.1215 7.45376 33.4574ZM66.9001 33.4497C66.9001 51.9237 51.9237 66.8995 33.4491 66.8995C14.9758 66.8995 0 51.9237 0 33.4497C0 14.9758 14.9758 0 33.4491 0C51.9237 0 66.9001 14.9758 66.9001 33.4497Z" fill="#739DD2"></path><path d="M28.8357 40.8805C28.8357 48.5709 35.0703 54.8055 42.7607 54.8055C50.4512 54.8055 56.6851 48.5709 56.6851 40.8805C56.6851 33.1907 50.4512 26.9561 42.7607 26.9561C35.0703 26.9561 28.8357 33.1907 28.8357 40.8805ZM64.329 40.8805C64.329 52.7919 54.6728 62.4481 42.7607 62.4481C30.8493 62.4481 21.1931 52.7919 21.1931 40.8805C21.1931 28.969 30.8493 19.3129 42.7607 19.3129C54.6728 19.3129 64.329 28.969 64.329 40.8805Z" fill="#739DD2"></path></svg> 